<mxfile host="app.diagrams.net" agent="Mozilla/5.0 (Windows NT 10.0; Win64; x64) AppleWebKit/537.36 (KHTML, like Gecko) Chrome/126.0.0.0 Safari/537.36" version="24.7.4">
  <diagram name="Page-1" id="HuhNtdLgZO8I4yIGNLbL">
    <mxGraphModel dx="1363" dy="846" grid="1" gridSize="10" guides="1" tooltips="1" connect="1" arrows="1" fold="1" page="1" pageScale="1" pageWidth="850" pageHeight="1100" math="0" shadow="0">
      <root>
        <mxCell id="0" />
        <mxCell id="1" parent="0" />
        <mxCell id="FCnKOnShD0UhAtouvXHR-29" value="Nama Depan" style="ellipse;whiteSpace=wrap;html=1;align=center;" vertex="1" parent="1">
          <mxGeometry x="80" y="110" width="100" height="40" as="geometry" />
        </mxCell>
        <mxCell id="FCnKOnShD0UhAtouvXHR-32" value="Mendaftar" style="shape=rhombus;perimeter=rhombusPerimeter;whiteSpace=wrap;html=1;align=center;" vertex="1" parent="1">
          <mxGeometry x="487" y="210" width="105" height="80" as="geometry" />
        </mxCell>
        <mxCell id="FCnKOnShD0UhAtouvXHR-33" value="" style="endArrow=none;html=1;rounded=0;entryX=0.04;entryY=0.725;entryDx=0;entryDy=0;entryPerimeter=0;" edge="1" parent="1" source="FCnKOnShD0UhAtouvXHR-29" target="FCnKOnShD0UhAtouvXHR-45">
          <mxGeometry relative="1" as="geometry">
            <mxPoint x="200" y="130" as="sourcePoint" />
            <mxPoint x="330" y="129.5" as="targetPoint" />
            <Array as="points">
              <mxPoint x="220" y="150" />
              <mxPoint x="250" y="150" />
            </Array>
          </mxGeometry>
        </mxCell>
        <mxCell id="FCnKOnShD0UhAtouvXHR-35" value="Denda" style="ellipse;whiteSpace=wrap;html=1;align=center;" vertex="1" parent="1">
          <mxGeometry x="910" y="450" width="100" height="40" as="geometry" />
        </mxCell>
        <mxCell id="FCnKOnShD0UhAtouvXHR-37" value="Judul Buku" style="ellipse;whiteSpace=wrap;html=1;align=center;" vertex="1" parent="1">
          <mxGeometry x="693.75" y="780" width="100" height="40" as="geometry" />
        </mxCell>
        <mxCell id="FCnKOnShD0UhAtouvXHR-38" value="Tanggal Minjam" style="ellipse;whiteSpace=wrap;html=1;align=center;" vertex="1" parent="1">
          <mxGeometry x="669" y="400" width="100" height="40" as="geometry" />
        </mxCell>
        <mxCell id="FCnKOnShD0UhAtouvXHR-39" value="Pengarang" style="ellipse;whiteSpace=wrap;html=1;align=center;" vertex="1" parent="1">
          <mxGeometry x="883" y="780" width="100" height="40" as="geometry" />
        </mxCell>
        <mxCell id="FCnKOnShD0UhAtouvXHR-40" value="Tahun Terbit" style="ellipse;whiteSpace=wrap;html=1;align=center;" vertex="1" parent="1">
          <mxGeometry x="730" y="910" width="100" height="40" as="geometry" />
        </mxCell>
        <mxCell id="FCnKOnShD0UhAtouvXHR-43" value="Target Kembali" style="ellipse;whiteSpace=wrap;html=1;align=center;" vertex="1" parent="1">
          <mxGeometry x="668" y="350" width="100" height="40" as="geometry" />
        </mxCell>
        <mxCell id="FCnKOnShD0UhAtouvXHR-44" value="Judul Buku" style="ellipse;whiteSpace=wrap;html=1;align=center;" vertex="1" parent="1">
          <mxGeometry x="930" y="400" width="100" height="40" as="geometry" />
        </mxCell>
        <mxCell id="FCnKOnShD0UhAtouvXHR-45" value="Nama Belakang" style="ellipse;whiteSpace=wrap;html=1;align=center;" vertex="1" parent="1">
          <mxGeometry x="310" y="110" width="100" height="40" as="geometry" />
        </mxCell>
        <mxCell id="FCnKOnShD0UhAtouvXHR-47" value="Nama" style="ellipse;whiteSpace=wrap;html=1;align=center;" vertex="1" parent="1">
          <mxGeometry x="730" y="110" width="100" height="40" as="geometry" />
        </mxCell>
        <mxCell id="FCnKOnShD0UhAtouvXHR-48" value="Nama Tengah" style="ellipse;whiteSpace=wrap;html=1;align=center;" vertex="1" parent="1">
          <mxGeometry x="190" y="60" width="100" height="40" as="geometry" />
        </mxCell>
        <mxCell id="FCnKOnShD0UhAtouvXHR-49" value="Jurusan" style="ellipse;whiteSpace=wrap;html=1;align=center;" vertex="1" parent="1">
          <mxGeometry x="890" y="110" width="100" height="40" as="geometry" />
        </mxCell>
        <mxCell id="FCnKOnShD0UhAtouvXHR-50" value="Nomor Anggota" style="ellipse;whiteSpace=wrap;html=1;align=center;" vertex="1" parent="1">
          <mxGeometry x="912" y="300" width="100" height="40" as="geometry" />
        </mxCell>
        <mxCell id="FCnKOnShD0UhAtouvXHR-51" value="Nomor Anggota" style="ellipse;whiteSpace=wrap;html=1;align=center;" vertex="1" parent="1">
          <mxGeometry x="670" y="160" width="100" height="40" as="geometry" />
        </mxCell>
        <mxCell id="FCnKOnShD0UhAtouvXHR-53" value="Jenis Buku" style="ellipse;whiteSpace=wrap;html=1;align=center;" vertex="1" parent="1">
          <mxGeometry x="890" y="850" width="100" height="40" as="geometry" />
        </mxCell>
        <mxCell id="FCnKOnShD0UhAtouvXHR-55" value="Nama" style="ellipse;whiteSpace=wrap;html=1;align=center;" vertex="1" parent="1">
          <mxGeometry x="190" y="150" width="100" height="40" as="geometry" />
        </mxCell>
        <mxCell id="FCnKOnShD0UhAtouvXHR-56" value="Masa Berlaku" style="ellipse;whiteSpace=wrap;html=1;align=center;" vertex="1" parent="1">
          <mxGeometry x="940" y="160" width="100" height="40" as="geometry" />
        </mxCell>
        <mxCell id="FCnKOnShD0UhAtouvXHR-59" value="Kode Meminjam" style="ellipse;whiteSpace=wrap;html=1;align=center;" vertex="1" parent="1">
          <mxGeometry x="692" y="300" width="100" height="40" as="geometry" />
        </mxCell>
        <mxCell id="FCnKOnShD0UhAtouvXHR-60" value="Penerbit" style="ellipse;whiteSpace=wrap;html=1;align=center;" vertex="1" parent="1">
          <mxGeometry x="860" y="910" width="100" height="40" as="geometry" />
        </mxCell>
        <mxCell id="FCnKOnShD0UhAtouvXHR-61" value="Nomor Buku" style="ellipse;whiteSpace=wrap;html=1;align=center;" vertex="1" parent="1">
          <mxGeometry x="680" y="850" width="100" height="40" as="geometry" />
        </mxCell>
        <mxCell id="FCnKOnShD0UhAtouvXHR-62" value="Nomor Buku" style="ellipse;whiteSpace=wrap;html=1;align=center;" vertex="1" parent="1">
          <mxGeometry x="930" y="350" width="100" height="40" as="geometry" />
        </mxCell>
        <mxCell id="FCnKOnShD0UhAtouvXHR-63" value="Nim" style="ellipse;whiteSpace=wrap;html=1;align=center;" vertex="1" parent="1">
          <mxGeometry x="80" y="180" width="70" height="40" as="geometry" />
        </mxCell>
        <mxCell id="FCnKOnShD0UhAtouvXHR-67" value="Jurusan" style="ellipse;whiteSpace=wrap;html=1;align=center;" vertex="1" parent="1">
          <mxGeometry x="30" y="230" width="70" height="40" as="geometry" />
        </mxCell>
        <mxCell id="FCnKOnShD0UhAtouvXHR-69" value="Alamat" style="ellipse;whiteSpace=wrap;html=1;align=center;" vertex="1" parent="1">
          <mxGeometry x="80" y="280" width="70" height="40" as="geometry" />
        </mxCell>
        <mxCell id="FCnKOnShD0UhAtouvXHR-80" value="" style="endArrow=none;html=1;rounded=0;exitX=0.5;exitY=1;exitDx=0;exitDy=0;entryX=0.5;entryY=0;entryDx=0;entryDy=0;" edge="1" parent="1" source="FCnKOnShD0UhAtouvXHR-48" target="FCnKOnShD0UhAtouvXHR-55">
          <mxGeometry relative="1" as="geometry">
            <mxPoint x="239" y="120" as="sourcePoint" />
            <mxPoint x="240" y="140" as="targetPoint" />
            <Array as="points">
              <mxPoint x="240" y="150" />
            </Array>
          </mxGeometry>
        </mxCell>
        <mxCell id="FCnKOnShD0UhAtouvXHR-81" value="" style="endArrow=none;html=1;rounded=0;" edge="1" parent="1">
          <mxGeometry relative="1" as="geometry">
            <mxPoint x="240" y="190" as="sourcePoint" />
            <mxPoint x="240" y="230" as="targetPoint" />
            <Array as="points">
              <mxPoint x="240" y="230" />
            </Array>
          </mxGeometry>
        </mxCell>
        <mxCell id="FCnKOnShD0UhAtouvXHR-86" style="edgeStyle=orthogonalEdgeStyle;rounded=0;orthogonalLoop=1;jettySize=auto;html=1;exitX=0.5;exitY=0;exitDx=0;exitDy=0;entryX=0.5;entryY=0;entryDx=0;entryDy=0;" edge="1" parent="1" source="FCnKOnShD0UhAtouvXHR-85" target="FCnKOnShD0UhAtouvXHR-85">
          <mxGeometry relative="1" as="geometry" />
        </mxCell>
        <mxCell id="FCnKOnShD0UhAtouvXHR-85" value="Mahasiswa" style="whiteSpace=wrap;html=1;align=center;" vertex="1" parent="1">
          <mxGeometry x="190" y="230" width="100" height="40" as="geometry" />
        </mxCell>
        <mxCell id="FCnKOnShD0UhAtouvXHR-87" value="" style="endArrow=none;html=1;rounded=0;entryX=0;entryY=0.5;entryDx=0;entryDy=0;" edge="1" parent="1" target="FCnKOnShD0UhAtouvXHR-85">
          <mxGeometry relative="1" as="geometry">
            <mxPoint x="100" y="250" as="sourcePoint" />
            <mxPoint x="170" y="250" as="targetPoint" />
          </mxGeometry>
        </mxCell>
        <mxCell id="FCnKOnShD0UhAtouvXHR-90" value="" style="endArrow=none;html=1;rounded=0;" edge="1" parent="1">
          <mxGeometry relative="1" as="geometry">
            <mxPoint x="130" y="220" as="sourcePoint" />
            <mxPoint x="190" y="250" as="targetPoint" />
          </mxGeometry>
        </mxCell>
        <mxCell id="FCnKOnShD0UhAtouvXHR-91" value="" style="endArrow=none;html=1;rounded=0;entryX=0.39;entryY=1.05;entryDx=0;entryDy=0;entryPerimeter=0;" edge="1" parent="1">
          <mxGeometry relative="1" as="geometry">
            <mxPoint x="121" y="278" as="sourcePoint" />
            <mxPoint x="190" y="250" as="targetPoint" />
          </mxGeometry>
        </mxCell>
        <mxCell id="FCnKOnShD0UhAtouvXHR-92" value="Nama" style="ellipse;whiteSpace=wrap;html=1;align=center;" vertex="1" parent="1">
          <mxGeometry x="590" y="160" width="70" height="40" as="geometry" />
        </mxCell>
        <mxCell id="FCnKOnShD0UhAtouvXHR-93" value="Alamat" style="ellipse;whiteSpace=wrap;html=1;align=center;" vertex="1" parent="1">
          <mxGeometry x="410" y="160" width="70" height="40" as="geometry" />
        </mxCell>
        <mxCell id="FCnKOnShD0UhAtouvXHR-94" value="Nim" style="ellipse;whiteSpace=wrap;html=1;align=center;" vertex="1" parent="1">
          <mxGeometry x="560" y="110" width="70" height="40" as="geometry" />
        </mxCell>
        <mxCell id="FCnKOnShD0UhAtouvXHR-95" value="Jurusan" style="ellipse;whiteSpace=wrap;html=1;align=center;" vertex="1" parent="1">
          <mxGeometry x="445" y="110" width="70" height="40" as="geometry" />
        </mxCell>
        <mxCell id="FCnKOnShD0UhAtouvXHR-96" value="" style="endArrow=none;html=1;rounded=0;exitX=1;exitY=0.5;exitDx=0;exitDy=0;entryX=0;entryY=0.5;entryDx=0;entryDy=0;" edge="1" parent="1" source="FCnKOnShD0UhAtouvXHR-93" target="FCnKOnShD0UhAtouvXHR-92">
          <mxGeometry relative="1" as="geometry">
            <mxPoint x="490" y="180" as="sourcePoint" />
            <mxPoint x="580" y="180" as="targetPoint" />
            <Array as="points">
              <mxPoint x="540" y="210" />
            </Array>
          </mxGeometry>
        </mxCell>
        <mxCell id="FCnKOnShD0UhAtouvXHR-97" value="" style="endArrow=none;html=1;rounded=0;" edge="1" parent="1">
          <mxGeometry relative="1" as="geometry">
            <mxPoint x="540" y="210" as="sourcePoint" />
            <mxPoint x="590" y="150" as="targetPoint" />
          </mxGeometry>
        </mxCell>
        <mxCell id="FCnKOnShD0UhAtouvXHR-98" value="" style="endArrow=none;html=1;rounded=0;entryX=0.6;entryY=1.05;entryDx=0;entryDy=0;entryPerimeter=0;" edge="1" parent="1" target="FCnKOnShD0UhAtouvXHR-95">
          <mxGeometry relative="1" as="geometry">
            <mxPoint x="538.02" y="210" as="sourcePoint" />
            <mxPoint x="487" y="165.03999999999996" as="targetPoint" />
          </mxGeometry>
        </mxCell>
        <mxCell id="FCnKOnShD0UhAtouvXHR-99" value="Anggota Perpustakaan" style="whiteSpace=wrap;html=1;align=center;" vertex="1" parent="1">
          <mxGeometry x="792" y="220" width="120" height="60" as="geometry" />
        </mxCell>
        <mxCell id="FCnKOnShD0UhAtouvXHR-100" value="Many" style="endArrow=none;html=1;rounded=0;entryX=0;entryY=0.5;entryDx=0;entryDy=0;" edge="1" parent="1" target="FCnKOnShD0UhAtouvXHR-32">
          <mxGeometry relative="1" as="geometry">
            <mxPoint x="290" y="250" as="sourcePoint" />
            <mxPoint x="450" y="250" as="targetPoint" />
          </mxGeometry>
        </mxCell>
        <mxCell id="FCnKOnShD0UhAtouvXHR-101" value="Many" style="endArrow=none;html=1;rounded=0;entryX=0;entryY=0.5;entryDx=0;entryDy=0;" edge="1" parent="1" target="FCnKOnShD0UhAtouvXHR-99">
          <mxGeometry relative="1" as="geometry">
            <mxPoint x="590" y="250" as="sourcePoint" />
            <mxPoint x="750" y="250" as="targetPoint" />
          </mxGeometry>
        </mxCell>
        <mxCell id="FCnKOnShD0UhAtouvXHR-102" value="" style="endArrow=none;html=1;rounded=0;entryX=0;entryY=0.5;entryDx=0;entryDy=0;" edge="1" parent="1" source="FCnKOnShD0UhAtouvXHR-51" target="FCnKOnShD0UhAtouvXHR-56">
          <mxGeometry relative="1" as="geometry">
            <mxPoint x="770" y="180" as="sourcePoint" />
            <mxPoint x="930" y="180" as="targetPoint" />
            <Array as="points">
              <mxPoint x="850" y="220" />
            </Array>
          </mxGeometry>
        </mxCell>
        <mxCell id="FCnKOnShD0UhAtouvXHR-103" value="" style="endArrow=none;html=1;rounded=0;exitX=0.57;exitY=1.075;exitDx=0;exitDy=0;exitPerimeter=0;" edge="1" parent="1" source="FCnKOnShD0UhAtouvXHR-47">
          <mxGeometry relative="1" as="geometry">
            <mxPoint x="750" y="100" as="sourcePoint" />
            <mxPoint x="850" y="220" as="targetPoint" />
          </mxGeometry>
        </mxCell>
        <mxCell id="FCnKOnShD0UhAtouvXHR-104" value="" style="endArrow=none;html=1;rounded=0;exitX=0.27;exitY=1.025;exitDx=0;exitDy=0;exitPerimeter=0;" edge="1" parent="1" source="FCnKOnShD0UhAtouvXHR-49">
          <mxGeometry relative="1" as="geometry">
            <mxPoint x="917" y="133" as="sourcePoint" />
            <mxPoint x="850" y="220" as="targetPoint" />
          </mxGeometry>
        </mxCell>
        <mxCell id="FCnKOnShD0UhAtouvXHR-105" value="&amp;nbsp;Meminjam" style="shape=rhombus;perimeter=rhombusPerimeter;whiteSpace=wrap;html=1;align=center;" vertex="1" parent="1">
          <mxGeometry x="807" y="340" width="87.5" height="80" as="geometry" />
        </mxCell>
        <mxCell id="FCnKOnShD0UhAtouvXHR-107" value="" style="endArrow=none;html=1;rounded=0;exitX=0.5;exitY=1;exitDx=0;exitDy=0;" edge="1" parent="1" source="FCnKOnShD0UhAtouvXHR-99">
          <mxGeometry relative="1" as="geometry">
            <mxPoint x="850" y="290" as="sourcePoint" />
            <mxPoint x="852" y="340" as="targetPoint" />
          </mxGeometry>
        </mxCell>
        <mxCell id="FCnKOnShD0UhAtouvXHR-108" value="" style="endArrow=none;html=1;rounded=0;" edge="1" parent="1">
          <mxGeometry relative="1" as="geometry">
            <mxPoint x="850" y="420" as="sourcePoint" />
            <mxPoint x="850" y="530" as="targetPoint" />
          </mxGeometry>
        </mxCell>
        <mxCell id="FCnKOnShD0UhAtouvXHR-109" value="" style="endArrow=none;html=1;rounded=0;" edge="1" parent="1">
          <mxGeometry relative="1" as="geometry">
            <mxPoint x="759" y="340" as="sourcePoint" />
            <mxPoint x="809" y="380" as="targetPoint" />
          </mxGeometry>
        </mxCell>
        <mxCell id="FCnKOnShD0UhAtouvXHR-110" value="" style="endArrow=none;html=1;rounded=0;entryX=0;entryY=0.5;entryDx=0;entryDy=0;" edge="1" parent="1">
          <mxGeometry relative="1" as="geometry">
            <mxPoint x="768" y="370" as="sourcePoint" />
            <mxPoint x="806" y="380" as="targetPoint" />
          </mxGeometry>
        </mxCell>
        <mxCell id="FCnKOnShD0UhAtouvXHR-111" value="" style="endArrow=none;html=1;rounded=0;exitX=0.97;exitY=0.3;exitDx=0;exitDy=0;exitPerimeter=0;" edge="1" parent="1">
          <mxGeometry relative="1" as="geometry">
            <mxPoint x="765" y="412" as="sourcePoint" />
            <mxPoint x="809" y="380" as="targetPoint" />
          </mxGeometry>
        </mxCell>
        <mxCell id="FCnKOnShD0UhAtouvXHR-112" value="" style="endArrow=none;html=1;rounded=0;" edge="1" parent="1">
          <mxGeometry relative="1" as="geometry">
            <mxPoint x="894" y="380" as="sourcePoint" />
            <mxPoint x="940" y="340" as="targetPoint" />
          </mxGeometry>
        </mxCell>
        <mxCell id="FCnKOnShD0UhAtouvXHR-113" value="" style="endArrow=none;html=1;rounded=0;entryX=0.01;entryY=0.7;entryDx=0;entryDy=0;entryPerimeter=0;" edge="1" parent="1" source="FCnKOnShD0UhAtouvXHR-105" target="FCnKOnShD0UhAtouvXHR-62">
          <mxGeometry relative="1" as="geometry">
            <mxPoint x="894.5" y="380" as="sourcePoint" />
            <mxPoint x="1054.5" y="380" as="targetPoint" />
          </mxGeometry>
        </mxCell>
        <mxCell id="FCnKOnShD0UhAtouvXHR-114" value="" style="endArrow=none;html=1;rounded=0;entryX=0.09;entryY=0.125;entryDx=0;entryDy=0;entryPerimeter=0;exitX=1;exitY=0.5;exitDx=0;exitDy=0;" edge="1" parent="1" source="FCnKOnShD0UhAtouvXHR-105" target="FCnKOnShD0UhAtouvXHR-44">
          <mxGeometry relative="1" as="geometry">
            <mxPoint x="900" y="380" as="sourcePoint" />
            <mxPoint x="1054.5" y="380" as="targetPoint" />
          </mxGeometry>
        </mxCell>
        <mxCell id="FCnKOnShD0UhAtouvXHR-115" value="" style="endArrow=none;html=1;rounded=0;entryX=0.2;entryY=0;entryDx=0;entryDy=0;entryPerimeter=0;" edge="1" parent="1" target="FCnKOnShD0UhAtouvXHR-35">
          <mxGeometry relative="1" as="geometry">
            <mxPoint x="894.5" y="380" as="sourcePoint" />
            <mxPoint x="984.5" y="450" as="targetPoint" />
          </mxGeometry>
        </mxCell>
        <mxCell id="FCnKOnShD0UhAtouvXHR-117" value="Entity" style="whiteSpace=wrap;html=1;align=center;" vertex="1" parent="1">
          <mxGeometry x="1960" y="1150" width="120" height="60" as="geometry" />
        </mxCell>
        <mxCell id="FCnKOnShD0UhAtouvXHR-118" value="Buku" style="whiteSpace=wrap;html=1;align=center;" vertex="1" parent="1">
          <mxGeometry x="793.75" y="699" width="120" height="60" as="geometry" />
        </mxCell>
        <mxCell id="FCnKOnShD0UhAtouvXHR-122" value="" style="endArrow=none;html=1;rounded=0;" edge="1" parent="1">
          <mxGeometry relative="1" as="geometry">
            <mxPoint x="850" y="530" as="sourcePoint" />
            <mxPoint x="850" y="700" as="targetPoint" />
          </mxGeometry>
        </mxCell>
        <mxCell id="FCnKOnShD0UhAtouvXHR-132" value="Many" style="edgeLabel;html=1;align=center;verticalAlign=middle;resizable=0;points=[];" vertex="1" connectable="0" parent="FCnKOnShD0UhAtouvXHR-122">
          <mxGeometry x="-0.8882" relative="1" as="geometry">
            <mxPoint as="offset" />
          </mxGeometry>
        </mxCell>
        <mxCell id="FCnKOnShD0UhAtouvXHR-125" value="" style="endArrow=none;html=1;rounded=0;entryX=0;entryY=0;entryDx=0;entryDy=0;exitX=0.5;exitY=1;exitDx=0;exitDy=0;" edge="1" parent="1" source="FCnKOnShD0UhAtouvXHR-118" target="FCnKOnShD0UhAtouvXHR-39">
          <mxGeometry relative="1" as="geometry">
            <mxPoint x="870" y="760" as="sourcePoint" />
            <mxPoint x="910" y="810" as="targetPoint" />
          </mxGeometry>
        </mxCell>
        <mxCell id="FCnKOnShD0UhAtouvXHR-126" value="" style="endArrow=none;html=1;rounded=0;exitX=0.5;exitY=1;exitDx=0;exitDy=0;entryX=0.793;entryY=0.1;entryDx=0;entryDy=0;entryPerimeter=0;" edge="1" parent="1">
          <mxGeometry relative="1" as="geometry">
            <mxPoint x="856" y="759" as="sourcePoint" />
            <mxPoint x="779.05" y="783" as="targetPoint" />
          </mxGeometry>
        </mxCell>
        <mxCell id="FCnKOnShD0UhAtouvXHR-127" value="" style="endArrow=none;html=1;rounded=0;entryX=0.793;entryY=0.1;entryDx=0;entryDy=0;entryPerimeter=0;" edge="1" parent="1">
          <mxGeometry relative="1" as="geometry">
            <mxPoint x="850" y="760" as="sourcePoint" />
            <mxPoint x="753.05" y="850" as="targetPoint" />
          </mxGeometry>
        </mxCell>
        <mxCell id="FCnKOnShD0UhAtouvXHR-129" value="" style="endArrow=none;html=1;rounded=0;entryX=0.793;entryY=0.1;entryDx=0;entryDy=0;entryPerimeter=0;" edge="1" parent="1">
          <mxGeometry relative="1" as="geometry">
            <mxPoint x="850" y="760" as="sourcePoint" />
            <mxPoint x="780" y="910" as="targetPoint" />
          </mxGeometry>
        </mxCell>
        <mxCell id="FCnKOnShD0UhAtouvXHR-130" value="" style="endArrow=none;html=1;rounded=0;entryX=0.793;entryY=0.1;entryDx=0;entryDy=0;entryPerimeter=0;exitX=0;exitY=0;exitDx=0;exitDy=0;" edge="1" parent="1" source="FCnKOnShD0UhAtouvXHR-53">
          <mxGeometry relative="1" as="geometry">
            <mxPoint x="900" y="849" as="sourcePoint" />
            <mxPoint x="850" y="759" as="targetPoint" />
          </mxGeometry>
        </mxCell>
        <mxCell id="FCnKOnShD0UhAtouvXHR-131" value="" style="endArrow=none;html=1;rounded=0;exitX=0;exitY=0;exitDx=0;exitDy=0;" edge="1" parent="1">
          <mxGeometry relative="1" as="geometry">
            <mxPoint x="905" y="910" as="sourcePoint" />
            <mxPoint x="850" y="760" as="targetPoint" />
          </mxGeometry>
        </mxCell>
      </root>
    </mxGraphModel>
  </diagram>
</mxfile>
